<svg width="24" height="24" viewBox="0 0 24 24" fill="none" xmlns="http://www.w3.org/2000/svg">
<path fill-rule="evenodd" clip-rule="evenodd" d="M12 1C9.01258 1 8.63798 1.01266 7.46476 1.0662C6.29389 1.1196 5.49431 1.30556 4.79458 1.57746C4.07123 1.85858 3.45779 2.2347 2.84627 2.84623C2.23475 3.45779 1.85862 4.07123 1.57751 4.79458C1.30556 5.49426 1.11964 6.29389 1.0662 7.46471C1.01266 8.63798 1 9.01258 1 12C1 14.9874 1.01266 15.362 1.0662 16.5353C1.11964 17.7061 1.30556 18.5057 1.57751 19.2054C1.85862 19.9288 2.23475 20.5422 2.84627 21.1538C3.45779 21.7653 4.07123 22.1414 4.79458 22.4225C5.49431 22.6944 6.29389 22.8804 7.46476 22.9338C8.63798 22.9874 9.01258 23 12 23C14.9875 23 15.362 22.9874 16.5353 22.9338C17.7062 22.8804 18.5057 22.6944 19.2055 22.4225C19.9288 22.1414 20.5423 21.7653 21.1538 21.1538C21.7653 20.5422 22.1414 19.9288 22.4225 19.2054C22.6945 18.5057 22.8804 17.7061 22.9338 16.5353C22.9874 15.362 23 14.9874 23 12C23 9.01258 22.9874 8.63798 22.9338 7.46471C22.8804 6.29389 22.6945 5.49426 22.4225 4.79458C22.1414 4.07123 21.7653 3.45779 21.1538 2.84623C20.5423 2.2347 19.9288 1.85858 19.2055 1.57746C18.5057 1.30556 17.7062 1.1196 16.5353 1.0662C15.362 1.01266 14.9875 1 12 1ZM12 2.98198C14.9372 2.98198 15.285 2.9932 16.4449 3.04612C17.5174 3.09503 18.0999 3.27423 18.4875 3.42487C19.0009 3.62442 19.3674 3.86278 19.7523 4.24773C20.1372 4.63263 20.3756 4.99906 20.5751 5.51251C20.7258 5.90013 20.905 6.48257 20.9539 7.55506C21.0068 8.71496 21.018 9.06288 21.018 12C21.018 14.9371 21.0068 15.285 20.9539 16.4449C20.905 17.5174 20.7258 18.0999 20.5751 18.4875C20.3756 19.0009 20.1372 19.3674 19.7523 19.7523C19.3674 20.1372 19.0009 20.3756 18.4875 20.5751C18.0999 20.7258 17.5174 20.905 16.4449 20.9539C15.2852 21.0068 14.9373 21.018 12 21.018C9.06271 21.018 8.71483 21.0068 7.5551 20.9539C6.48261 20.905 5.90013 20.7258 5.51252 20.5751C4.99911 20.3756 4.63263 20.1372 4.24773 19.7523C3.86282 19.3674 3.62442 19.0009 3.42487 18.4875C3.27427 18.0999 3.09507 17.5174 3.04612 16.4449C2.9932 15.285 2.98202 14.9371 2.98202 12C2.98202 9.06288 2.9932 8.71496 3.04612 7.55506C3.09507 6.48257 3.27427 5.90013 3.42487 5.51251C3.62442 4.99906 3.86282 4.63263 4.24773 4.24773C4.63263 3.86278 4.99911 3.62442 5.51252 3.42487C5.90013 3.27423 6.48261 3.09503 7.55506 3.04612C8.71501 2.9932 9.06288 2.98198 12 2.98198ZM12 15.6736C9.97495 15.6736 8.3333 14.032 8.3333 12.007C8.3333 9.98189 9.97495 8.34028 12 8.34028C14.025 8.34028 15.6666 9.98189 15.6666 12.007C15.6666 14.032 14.025 15.6736 12 15.6736ZM12 6.3583C8.88033 6.3583 6.35132 8.88726 6.35132 12.007C6.35132 15.1266 8.88033 17.6556 12 17.6556C15.1196 17.6556 17.6487 15.1266 17.6487 12.007C17.6487 8.88726 15.1196 6.3583 12 6.3583ZM17.8719 7.4551C18.6009 7.4551 19.1919 6.86414 19.1919 6.13512C19.1919 5.40609 18.6009 4.81514 17.8719 4.81514C17.1428 4.81514 16.5518 5.40609 16.5518 6.13512C16.5518 6.86414 17.1428 7.4551 17.8719 7.4551Z" fill="white"/>
</svg>
