<svg width="131" height="24" viewBox="0 0 131 24" fill="none" xmlns="http://www.w3.org/2000/svg">
<path fill-rule="evenodd" clip-rule="evenodd" d="M10.9315 0L11.1573 1.28929C7.8531 1.66543 5.40139 4.94356 5.40139 10.2008C5.40139 17.1381 10.0635 21.0539 15.0208 21.0539C17.093 21.0539 19.2014 20.3452 21.1252 18.182L21.9761 18.8907C21.0147 20.681 17.9807 24 12.394 24C5.91972 24 0 19.5622 0 12.0654C0 5.07002 5.05497 0.775947 10.9315 0ZM33.0707 13.9324V15.2013C29.2573 15.649 28.3755 17.5119 28.3755 18.8163C28.3755 20.196 29.1527 21.3524 30.9286 21.3524C31.7368 21.3524 32.4638 21.1312 33.0707 20.7535V22.3662C31.9887 23.1986 30.5149 23.8513 28.7086 23.8513C26.156 23.8513 23.825 22.6578 23.825 19.7488C23.825 16.7984 26.2377 14.9882 33.0707 13.9324ZM83.9203 6.47146C87.8789 6.47146 90.9861 8.63464 90.9861 11.9537C90.9861 14.9003 88.5445 15.3104 84.6228 15.4594L81.8076 15.5627L81.6346 14.303H82.6995C85.8809 14.303 86.8428 13.2968 86.8428 11.5808C86.8428 9.67856 85.5846 7.88829 83.3652 7.88829C80.8494 7.88829 79.6286 9.90242 79.4434 12.7372C79.3559 13.8871 79.232 15.7925 80.1395 17.5295C81.1446 19.9246 83.1949 21.2779 85.7699 21.2779C87.1753 21.2779 88.6182 20.9045 89.9131 19.3381L90.8014 20.1216C90.0984 21.5013 87.7305 23.8512 83.6241 23.8512C78.9993 23.8512 74.7077 20.9045 74.7077 15.2361C74.7077 9.38046 79.2956 6.47146 83.9203 6.47146ZM101.726 6.47146C105.684 6.47146 108.792 8.63464 108.792 11.9537C108.792 14.9003 106.35 15.3104 102.429 15.4594L99.6129 15.5627L99.4399 14.303H100.505C103.687 14.303 104.648 13.2968 104.648 11.5808C104.648 9.67856 103.391 7.88829 101.171 7.88829C98.6553 7.88829 97.4345 9.90242 97.2487 12.7372C97.1617 13.8871 97.0374 15.7925 97.9453 17.5295C98.9505 19.9246 101 21.2779 103.576 21.2779C104.981 21.2779 106.424 20.9045 107.719 19.3381L108.607 20.1216C107.904 21.5013 105.536 23.8512 101.429 23.8512C96.8052 23.8512 92.5135 20.9045 92.5135 15.2361C92.5135 9.38046 97.1014 6.47146 101.726 6.47146ZM33.1851 6.47108C37.4026 6.47108 39.3264 8.07517 39.3264 13.2587V20.3079C39.3264 21.5385 39.9557 21.9863 41.2133 21.7253V22.993C40.5472 23.515 39.2159 23.8137 38.143 23.8137C36.0708 23.8137 35.1095 22.6201 34.9611 21.2776C34.96 21.2647 34.9563 21.255 34.9552 21.2421C34.9418 19.9431 34.9125 18.0925 34.8874 16.3706V16.2802C34.8874 16.2662 34.8853 16.2554 34.8853 16.2414C34.8666 14.9715 34.8495 13.785 34.8436 12.9536C34.8709 12.8062 34.8874 12.641 34.8874 12.4387V11.9538C34.8874 9.26815 33.9624 7.85132 31.7792 7.85132C30.0032 7.85132 29.4118 9.0077 29.4118 10.5365C29.4118 12.1029 28.2647 12.8116 27.0439 12.8116C25.6374 12.8116 24.9349 11.8419 24.9349 10.7232C24.9349 8.03751 29.1155 6.47108 33.1851 6.47108ZM70.0838 2.77861V5.80006C70.0838 6.583 70.4169 6.80686 71.0831 6.80686H74.3387V8.33615H71.0831C70.4169 8.33615 70.0838 8.55947 70.0838 9.34295V18.9282C70.0838 20.6066 70.4169 22.0234 71.9339 22.0234C72.6369 22.0234 73.3399 21.8372 73.8577 21.4272L74.4865 22.583C73.8577 23.1426 72.7111 23.8137 70.7131 23.8137C67.3834 23.8137 65.6448 22.0982 65.6448 18.1076V9.34295C65.6448 8.55947 65.3486 8.33615 64.6461 8.33615H63.1286V7.25456C66.3473 6.80685 67.7165 5.42716 68.3447 2.77861H70.0838ZM123.416 6.39628C126.117 6.39628 128.78 7.7394 128.78 12.9606V20.3079C128.78 21.5385 129.41 21.9863 130.667 21.7253V22.993C130.001 23.515 128.632 23.8137 127.559 23.8137C125.524 23.8137 124.341 22.7321 124.341 20.7179V13.9303C124.341 11.1703 123.194 9.30581 120.937 9.30581C120.201 9.30581 119.553 9.48662 119.011 9.81863V8.00845C119.909 7.21744 121.274 6.39628 123.416 6.39628ZM56.1438 6.39628C58.8447 6.39628 61.5089 7.7394 61.5089 12.9606V20.3079C61.5089 21.5385 62.1377 21.9863 63.3953 21.7253V22.993C62.7297 23.515 61.3605 23.8137 60.2881 23.8137C58.2528 23.8137 57.0694 22.7321 57.0694 20.7179V13.9303C57.0694 11.1703 55.9217 9.30581 53.6654 9.30581C52.9288 9.30581 52.2818 9.48662 51.7395 9.81863V8.00845C52.6378 7.21744 54.0022 6.39628 56.1438 6.39628ZM115.499 6.54572C116.537 6.36546 117.086 6.81746 117.12 7.62462L117.125 16.745H117.126V20.0839C117.126 21.688 117.755 22.2099 119.457 22.359V23.6273H110.319V22.359C112.058 22.2099 112.687 21.688 112.687 20.0839V10.7973C112.687 9.0818 111.984 8.63411 110.319 8.78316V7.51538L115.499 6.54572ZM48.2268 6.54572C49.2655 6.36546 49.8137 6.81746 49.8479 7.62462L49.8532 16.745H49.8548V20.0839C49.8548 21.688 50.4836 22.2099 52.1854 22.359V23.6273H43.0474V22.359C44.7865 22.2099 45.4148 21.688 45.4148 20.0839V10.7973C45.4148 9.0818 44.7123 8.63411 43.0474 8.78316V7.51538L48.2268 6.54572ZM18.6593 0.863661C18.6593 0.863661 22.509 4.00673 22.3414 7.30154C22.3414 9.35172 20.693 11.0134 18.6593 11.0134C16.6256 11.0134 14.9772 9.35172 14.9772 7.30154C14.8096 4.00673 18.6593 0.863661 18.6593 0.863661Z" fill="white"/>
</svg>
